HIERARCHY
ROOT Hips
{
	OFFSET -3.958830 18.904000 13.208200
	CHANNELS 6 Xposition Yposition Zposition Zrotation Yrotation Xrotation 
	JOINT LHipJoint
	{
		OFFSET 0.000000 0.000000 0.000000
		CHANNELS 3 Zrotation Yrotation Xrotation
		JOINT LeftUpLeg
		{
			OFFSET 1.800000 -1.400000 0.085000
			CHANNELS 3 Zrotation Yrotation Xrotation
			JOINT LeftLeg
			{
				OFFSET 2.215000 -6.000000 0.000000
				CHANNELS 3 Zrotation Yrotation Xrotation
				JOINT LeftFoot
				{
					OFFSET 2.500000 -6.900000 0.000000
					CHANNELS 3 Zrotation Yrotation Xrotation
					JOINT LeftToeBase
					{
						OFFSET 0.200000 -0.500000 1.950000
						CHANNELS 3 Zrotation Yrotation Xrotation
						End Site
						{
							OFFSET 0.000000 0.000000 0.000000
						}
					}
				}
			}
		}
	}
	JOINT RHipJoint
	{
		OFFSET 0.000000 0.000000 0.000000
		CHANNELS 3 Zrotation Yrotation Xrotation
		JOINT RightUpLeg
		{
			OFFSET -1.800000 -1.400000 0.085000
			CHANNELS 3 Zrotation Yrotation Xrotation
			JOINT RightLeg
			{
				OFFSET -2.215000 -6.000000 0.000000
				CHANNELS 3 Zrotation Yrotation Xrotation
				JOINT RightFoot
				{
					OFFSET -2.500000 -6.900000 0.000000
					CHANNELS 3 Zrotation Yrotation Xrotation
					JOINT RightToeBase
					{
						OFFSET -0.200000 -0.500000 1.950000
						CHANNELS 3 Zrotation Yrotation Xrotation
						End Site
						{
							OFFSET 0.000000 0.000000 0.000000
						}
					}
				}
			}
		}
	}
	JOINT LowerBack
	{
		OFFSET 0.000000 0.000000 0.000000
		CHANNELS 3 Zrotation Yrotation Xrotation
		JOINT Spine
		{
			OFFSET -0.087000 1.940000 -0.288900
			CHANNELS 3 Zrotation Yrotation Xrotation
			JOINT Spine1
			{
				OFFSET 0.000000 1.950000 0.060000
				CHANNELS 3 Zrotation Yrotation Xrotation
				JOINT Neck
				{
					OFFSET 0.000000 0.000000 0.000000
					CHANNELS 3 Zrotation Yrotation Xrotation
					JOINT Neck1
					{
						OFFSET 0.000000 1.600000 0.340000
						CHANNELS 3 Zrotation Yrotation Xrotation
						JOINT Head
						{
							OFFSET 0.000000 1.667000 -0.240000
							CHANNELS 3 Zrotation Yrotation Xrotation
							End Site
							{
								OFFSET 0.000000 0.000000 0.000000
							}
						}
					}
				}
				JOINT LeftShoulder
				{
					OFFSET 0.000000 0.000000 0.000000
					CHANNELS 3 Zrotation Yrotation Xrotation
					JOINT LeftArm
					{
						OFFSET 2.700000 1.550000 -0.730000
						CHANNELS 3 Zrotation Yrotation Xrotation
						JOINT LeftForeArm
						{
							OFFSET 5.450000 0.000000 0.000000
							CHANNELS 3 Zrotation Yrotation Xrotation
							JOINT LeftHand
							{
								OFFSET 3.450000 0.000000 0.000000
								CHANNELS 3 Zrotation Yrotation Xrotation
								JOINT LeftHandIndex1
								{
									OFFSET 0.750000 0.000000 0.000000
									CHANNELS 3 Zrotation Yrotation Xrotation
									End Site
									{
										OFFSET 0.000000 0.000000 0.000000
									}
								}
							}
						}
					}
				}
				JOINT RightShoulder
				{
					OFFSET 0.000000 0.000000 0.000000
					CHANNELS 3 Zrotation Yrotation Xrotation
					JOINT RightArm
					{
						OFFSET -2.700000 1.550000 -0.730000
						CHANNELS 3 Zrotation Yrotation Xrotation
						JOINT RightForeArm
						{
							OFFSET -5.450000 0.000000 0.000000
							CHANNELS 3 Zrotation Yrotation Xrotation
							JOINT RightHand
							{
								OFFSET -3.450000 0.000000 0.000000
								CHANNELS 3 Zrotation Yrotation Xrotation
								JOINT RightHandIndex1
								{
									OFFSET -0.750000 0.000000 0.000000
									CHANNELS 3 Zrotation Yrotation Xrotation
									End Site
									{
										OFFSET 0.000000 0.000000 0.000000
									}
								}
							}
						}
					}
				}
			}
		}
	}
}
MOTION
Frames: 9
Frame Time: 0.016667
0.136230 17.320940 -2.445660 -3.180032 -20.856962 -0.022395 -14.881050 13.272572 3.455318 2.075057 -1.152937 -10.102840 -9.097643 4.136985 1.581471 -0.268480 3.398878 3.470143 0.387670 0.249680 0.252090 18.471431 -10.671590 3.173974 -1.821541 -0.446835 -3.766959 7.446592 -4.299229 3.732763 -0.561826 -3.434106 3.256105 0.063140 0.030070 0.180490 -4.066553 -1.992797 -8.028908 19.333896 -2.867994 16.623221 -13.760530 0.781480 2.319914 10.050349 -8.466906 -10.445726 -19.665061 13.287435 49.085642 -6.881570 6.391680 -10.997330 -32.417399 -5.882923 2.306695 -44.517377 1.488304 -3.869317 -4.868528 -12.315779 -1.015764 -3.548169 2.823416 0.528540 -0.068680 0.204320 0.144830 11.498656 14.509768 5.128918 11.624775 6.630228 -11.279473 -59.561507 62.480690 -30.395221 1.477346 -0.555072 -0.025870 0.220470 -0.013480 -0.124790 
0.136210 17.314550 -2.447570 -3.231615 -20.997437 0.209453 -14.883158 13.273567 3.457947 2.071288 -1.180269 -10.340018 -9.034545 4.116006 1.573070 -0.269259 3.387591 3.482137 0.373600 0.233230 0.239620 18.466978 -10.671619 3.176767 -1.746993 -0.384540 -4.050349 7.467695 -4.268692 3.743231 -0.542095 -3.415193 3.268493 0.057360 0.048090 0.177900 -4.054988 -1.987351 -8.032166 19.370461 -2.731927 16.531009 -13.486400 0.964731 2.286259 10.039198 -8.520569 -10.485905 -19.607527 13.051968 48.534574 -6.911770 6.335950 -10.449940 -32.453456 -5.855611 2.363328 -44.664270 1.726234 -4.180830 -5.029989 -13.514211 -1.022314 -3.551121 2.836209 0.515490 -0.055230 0.187860 0.147190 11.554751 14.668383 5.181646 10.992948 6.999636 -11.017623 -57.941916 59.988579 -28.163953 1.544083 -0.686401 -0.032900 0.222890 -0.008110 -0.121460 
0.136330 17.306570 -2.451940 -3.262179 -21.232841 0.376892 -14.878812 13.289144 3.472330 2.076314 -1.192571 -10.536488 -8.926062 4.093018 1.599019 -0.249364 3.364570 3.498309 0.365410 0.229880 0.231770 18.458139 -10.691496 3.188096 -1.731901 -0.283006 -4.434436 7.564806 -4.262678 3.913114 -0.524727 -3.404455 3.278530 0.050070 0.060520 0.192550 -4.037847 -1.958837 -8.070309 19.328452 -2.498344 16.657664 -13.313158 1.290006 2.004696 10.108177 -8.052294 -10.437533 -18.189120 12.208061 48.355984 -7.578210 6.603000 -9.552710 -33.580654 -6.236989 2.584078 -43.345317 2.631555 -4.390198 -5.760751 -13.897030 -0.931907 -3.544062 2.876615 0.486190 -0.030420 0.180940 0.157140 12.469916 14.964416 5.116276 9.488116 7.431967 -10.613321 -54.692864 56.335963 -24.529022 1.650787 -0.877666 -0.021250 0.204980 -0.016570 -0.111480 
0.136710 17.306830 -2.461800 -3.314064 -21.588641 0.376354 -14.887769 13.350837 3.484019 2.251384 -1.187029 -10.798719 -8.956678 4.170202 2.064536 -0.240994 3.363249 3.496699 0.353910 0.220160 0.232060 18.428458 -10.691097 3.214628 -1.716509 -0.199776 -4.629685 7.660220 -4.241386 3.929608 -0.513290 -3.383532 3.283459 0.040780 0.055140 0.195060 -3.960908 -2.029893 -8.138176 19.055061 -2.250422 17.254690 -12.947907 1.726198 1.562840 10.175917 -7.518811 -10.610932 -16.909879 11.408118 48.659296 -8.143350 6.743920 -9.149470 -34.767750 -6.803696 2.891523 -42.030470 3.794934 -4.743648 -6.779907 -14.610456 -0.833368 -3.514075 2.909379 0.477930 -0.024620 0.181070 0.151370 13.503569 15.526923 5.226589 8.299322 7.578027 -10.424690 -52.481126 52.444938 -21.666997 1.746035 -1.004143 -0.018340 0.191390 -0.018580 -0.112800 
0.138060 17.308370 -2.475170 -3.309050 -21.779901 0.241942 -14.900542 13.446988 3.499570 2.405357 -1.203247 -11.209004 -9.063340 4.311364 2.901643 -0.250039 3.376558 3.485836 0.350570 0.201020 0.244060 18.388451 -10.698742 3.222577 -1.732928 -0.098736 -4.928687 7.682979 -4.276336 4.422515 -0.502512 -3.341282 3.295325 0.027350 0.039660 0.195760 -3.856801 -2.159469 -8.199949 18.700415 -2.069928 18.183982 -12.626646 2.164410 1.056151 10.176682 -7.040965 -11.008007 -16.003871 10.784961 49.030054 -8.402610 6.728440 -9.228820 -35.431944 -7.439133 3.200924 -40.884542 4.947787 -5.122702 -8.732574 -15.526262 -0.670832 -3.467386 2.940715 0.496610 -0.034170 0.185260 0.142900 14.202139 16.188018 5.600492 8.399016 7.194980 -10.626300 -53.264217 49.356055 -20.959465 1.795216 -1.058668 -0.022760 0.180980 -0.017510 -0.127580 
0.133250 17.310960 -2.492070 -3.248907 -22.096560 0.087719 -14.937073 13.578186 3.511195 2.601087 -1.216310 -11.851619 -9.165003 4.502384 4.054957 -0.239599 3.375004 3.475134 0.348910 0.197270 0.243810 18.322231 -10.691913 3.220072 -1.724865 0.018605 -5.338212 7.771676 -4.336812 5.181833 -0.491717 -3.287607 3.311994 0.014710 0.021240 0.195460 -3.671309 -2.375398 -8.264782 17.892962 -1.692785 19.328409 -11.715568 2.767283 0.418091 10.084131 -6.707768 -11.437892 -15.521393 10.295246 49.220734 -8.431350 6.593730 -9.393520 -35.577012 -7.779601 3.381485 -40.297967 5.897331 -5.605385 -10.948762 -16.968278 -0.424420 -3.415182 2.979536 0.508000 -0.050740 0.198630 0.144170 14.677432 16.761788 6.087840 9.409947 6.217401 -11.079754 -57.066599 48.103023 -22.600412 1.815582 -1.060066 -0.015660 0.167660 -0.025580 -0.127390 
0.125410 17.308850 -2.511320 -3.356435 -22.294261 0.110798 -14.967698 13.711242 3.494717 2.984362 -1.253305 -12.973567 -9.233858 4.799091 5.867387 -0.233394 3.394165 3.457727 0.328970 0.171810 0.227890 18.262807 -10.693500 3.215327 -1.554714 0.184011 -5.968572 7.908957 -4.426870 6.190389 -0.469552 -3.231256 3.331697 -0.010260 0.022210 0.197240 -3.504783 -2.576766 -8.291470 17.250838 -1.357214 20.344089 -10.613065 3.302218 -0.108667 9.874280 -6.534607 -11.772787 -15.285950 9.850463 48.756434 -8.445380 6.404350 -9.410790 -35.121334 -7.864255 3.489722 -40.387539 6.640483 -6.187259 -13.513057 -18.835097 -0.079693 -3.390795 3.009724 0.513140 -0.057320 0.199220 0.142850 14.818170 17.089148 6.588368 11.442152 5.073208 -11.702899 -63.494772 48.534587 -26.635883 1.797897 -0.999373 -0.013400 0.159460 -0.019400 -0.122630 
0.113080 17.301340 -2.536320 -3.503077 -22.475858 -0.010613 -15.005133 13.841575 3.478677 3.586287 -1.272175 -14.296927 -9.565674 5.252224 8.067925 -0.228738 3.486147 3.401401 0.302430 0.142820 0.208070 18.201154 -10.688089 3.196159 -1.222980 0.353717 -6.597776 7.887058 -4.543329 7.534974 -0.445028 -3.180218 3.344759 -0.033110 0.017100 0.197010 -3.325377 -2.792904 -8.299166 16.391754 -1.133013 21.618291 -9.366057 3.700556 -0.458481 9.594236 -6.408065 -11.943171 -15.014211 9.596381 48.010069 -8.743790 6.500330 -9.871380 -34.344872 -7.724797 3.517902 -40.482097 7.309209 -6.833894 -17.113539 -20.975472 0.490071 -3.377312 3.040749 0.520680 -0.064650 0.198620 0.131260 14.802056 17.113492 6.971667 14.117263 4.402756 -12.264356 -72.003244 49.979499 -33.128769 1.753347 -0.866552 -0.015080 0.150360 -0.002610 -0.124230 
0.097110 17.286590 -2.567170 -3.655538 -22.672369 -0.404894 -15.074736 14.000189 3.465912 4.447586 -1.262652 -15.732046 -10.062943 5.918653 10.841193 -0.189388 3.677378 3.296943 0.307470 0.136220 0.232810 18.113403 -10.638249 3.159494 -0.925256 0.547472 -7.033368 7.955491 -4.712247 9.194879 -0.441776 -3.150283 3.338016 -0.054220 -0.022490 0.208310 -3.059828 -3.135538 -8.306384 14.991484 -0.909878 23.450495 -7.540244 4.092274 -0.657705 9.260772 -6.364807 -12.002440 -14.920058 9.310569 47.110530 -9.367170 6.547350 -11.261960 -33.141309 -7.228539 3.405472 -40.803455 7.732479 -7.571637 -21.767095 -23.630771 1.422834 -3.357338 3.089449 0.532250 -0.093010 0.219570 0.113790 14.544485 16.874793 7.326049 16.901493 4.030928 -12.559188 -81.714047 51.739853 -41.981544 1.732695 -0.686058 0.007460 0.120840 -0.008810 -0.131740 
